<svg xmlns="http://www.w3.org/2000/svg" width="40" height="40" viewBox="0 0 40 40">
  <path fill="#A2CF5C" fill-rule="evenodd" d="M19.9705627,15.7279221 L34.8198052,0.87867966 C35.991378,-0.29289322 37.890873,-0.29289322 39.0624458,0.87867966 C40.2340187,2.05025253 40.2340187,3.9497475 39.0624458,5.1213203 L24.2132034,19.9705627 L39.0624458,34.8198052 C40.2340187,35.991378 40.2340187,37.890873 39.0624458,39.0624458 C37.890873,40.2340187 35.991378,40.2340187 34.8198052,39.0624458 L19.9705627,24.2132034 L5.1213203,39.0624458 C3.9497475,40.2340187 2.05025253,40.2340187 0.87867966,39.0624458 C-0.29289322,37.890873 -0.29289322,35.991378 0.87867966,34.8198052 L15.7279221,19.9705627 L0.87867966,5.1213203 C-0.29289322,3.9497475 -0.29289322,2.05025253 0.87867966,0.87867966 C2.05025253,-0.29289322 3.9497475,-0.29289322 5.1213203,0.87867966 L19.9705627,15.7279221 Z"/>
</svg>
